<svg xmlns="http://www.w3.org/2000/svg" width="200" height="200" fill="none" viewBox="0 0 200 200">
<!-- SVG created with Arrow, by QuiverAI (https://quiver.ai) -->
  <path d="m102.2 5.71-44.94 12.17c-2.19 0.63-1.77 2.75 0 3.36l21.4 7.19-2.37 8.77-2.04 1.42c-4.08-1.39-7.74-4.09-9.53-5.81-2.56-2.46-4.06 1.93-3.77 6.32 0.08 1.34 0.35 2.09 0.35 2.09-1.07-0.84-2.4-1.16-2.86 0.71-0.73 2.94 0.79 6.83 3.54 9.7-4.43 6.22-6.21 14.26-6.21 22.15 0 8.56 3.35 15.41 8.09 20.06-6.63 3.41-9.6 11.82-9.6 19.12 0 9.26 5.92 17.13 12.3 19.36l4.25 2.84 3.23 4.22-16.08 4.07c-7.39 2.76-6.9 14.71-1.71 18.83l-7.62 1.18c-7.35 2.37-6.46 16.45-0.45 19.25l61.79 12.29 45.15-15.79v-2.37l-2.95-1.96-1.39-0.69c-1.51-3.93 0-9.11 4.15-11.26l-0.49-2.18-5.17-1.18-0.49-2.45-2.94-0.99c-1.18-4.51-0.35-8.35 2.13-11.81l1.77-1.46v-1.72l-4.44-3.93-0.93-3.11c5.55 0.96 8.28-0.5 8.09-7.59-0.29-10.03-6.17-26.46-16.29-32.1 6.39-6.07 9.29-12.54 9.29-21.8l1.67-0.55-0.92-2.28-1.67-0.71c-0.6-5.95-2.46-12.36-5.7-16.8 3.33-2.49 5.2-6.19 4.72-8.47-0.33-1.48-2.54-0.52-4.29 0.66 1.39-3.5 1.98-8.4 0.59-10-1.1-1.29-6.32 3.46-10.4 4.45l-1.1-7.8 23.27-6.89v-1.81l-47.82-16.7h-1.61z" fill="#FEFFFE" stroke="#351414" stroke-miterlimit="10" stroke-width="2.5"/>
  <path d="m102.9 6.08 48.48 16.27c1.26 0.54 0.93 2.16-0.6 2.74l-22.56 7.04-1.51-7.9-1.87-1.18c-12.65-5.44-28.74-5.44-40.55-2.27-3.13 0.88-4.28 2.27-5.94 8.21l-21.27-7.77c-1.39-0.74-1.72-2.71 0-3.46l44.57-12.05 1.25 0.37z" fill="#523636" stroke="#351414" stroke-miterlimit="10" stroke-width="2"/>
  <path d="m127.6 26.5 3.04 11.84-3.67 0.87c-6.26 0.55-17.21 0.28-29.54 5.4-8.46-3.89-13.89-5.59-19.05-6.27l1.51-12.07c0.87-3.07 1.79-4.46 5.36-5.64 11.59-3.37 25.79-2.5 38.89 2.42 2.37 0.87 2.97 1.84 3.46 3.45z" fill="#6C5353" stroke="#351414" stroke-miterlimit="10" stroke-width="2"/>
  <path d="m115.2 27.81c-10.13-5.12-20.26-4.68-29.53-2.5-3.66 0.96-5.53 4.7-6.7 12.27l-1.1 1.28c0.5-5.63 1.9-12.93 5.4-15.81 11.5-4.09 25.36-2.86 34.11 1.36 0.71 3.75-0.11 11.4-1.63 13.17l-3.83 0.34c2.86-0.96 3.66-3.57 3.28-10.11z" fill="#351414" opacity=".3"/>
  <path d="m150.9 24.22v17.45" stroke="#351414" stroke-miterlimit="10" stroke-width="2"/>
  <path d="m151.2 47.81c2 0 3.06-2.8 2-4.87-1.14-2.31-4.4-1.69-4.91 0.57-0.65 2.78 1.11 4.3 2.91 4.3z" fill="#F5A13B" stroke="#351414" stroke-miterlimit="10" stroke-width="2"/>
  <path d="m151.6 47.23c2.19 1.03 3.47 7.48 3.47 12.13 0 1.07-1.28 1.07-2.04 0.45-0.98 1.18-2.75 1.18-3.99 0-1.07 0.62-1.72 0-1.72-0.9 0-4.56 1.25-10.5 3.05-11.68 0.49-0.32 0.73-0.32 1.23 0z" fill="#F5A13B" stroke="#351414" stroke-miterlimit="10" stroke-width="2"/>
  <path d="m151.2 49.6c0.82 1.61 1.4 6.48 0.99 9.08l-0.99-1.21-0.91 1.21c-0.17-2.45 0-6.89 0.91-9.08z" fill="#351414" opacity=".3"/>
  <path d="m85.01 30.42c1.21-0.2 1.07-2.61-0.33-2.41-1.57 0.24-2.1 2.85-0.7 2.85 0.41 0 0.7-0.35 1.03-0.44z" fill="#FEFFFE" fill-opacity=".31" stroke="#FEFFFE" stroke-opacity=".31" stroke-width=".5"/>
  <path d="m83.73 34.28c0.46-0.16 0.38-1.35-0.24-1.23-0.72 0.15-0.98 1.46-0.26 1.46 0.21 0 0.34-0.17 0.5-0.23z" fill="#FEFFFE" fill-opacity=".31" stroke="#FEFFFE" stroke-opacity=".31" stroke-width=".5"/>
  <path d="m139.3 34.36c-2.58 2.65-7.68 5.57-16.09 6.07l-2.98 0.9c-8-0.37-17.11 0.81-23.03 3.28-7.78-3.65-14.9-5.7-19.9-6.02-4.83 0.27-9.66-2.96-12.81-5.56-2.36-1.96-3.29 5.56-0.56 10.28-2.94-1.97-3.87-2.2-3.87 0 0 3.22 1.55 6.42 3.87 8.29-4.83 5.44-7.77 13.71-7.77 23.19 0 14.12 10.68 27.28 32.96 28.46 7.35 0.37 18.3-0.5 24.21-2.27 12.16-3.74 23.76-8.27 30.71-22.38 1.87-7.41-0.14-17.64-5.42-26.51 3.56-2.37 5.23-6.12 4.9-7.96-0.26-1.34-2.9 0-4.29 0.96 1.51-2.7 1.92-8.77 0.07-10.73z" fill="#F08243" stroke="#351414" stroke-miterlimit="10" stroke-width="2"/>
  <path d="m131.3 50.13c5.18 1.96 8.51 13.43 8.51 22.09 0 11.84-8.99 21.67-22.09 25.17l-1.58 1.42c11.23-3.07 20.77-11.04 23.67-20.9 2.31-7.97-1.22-19.85-6.65-27.55 4.03-2.6 5.45-6.4 5.45-6.4-1.87 2.23-3.54 4.6-7.31 6.17z" fill="#351414" opacity=".3"/>
  <path d="m95.08 61.97c4.83-8.86 11.13-11.59 18.71-11.59 12.36 0 19.37 9.13 19.37 21.6s-10.78 25.08-35.84 25.08-36.15-8.05-39.1-19.9c-1.24-5.05 1.71-14.75 6.54-21.64 3.85-4.13 7.48-5.51 12.56-5.51 7.43 0 12.94 3.1 17.76 11.96z" fill="#FEF6D5" stroke="#D9784A" stroke-miterlimit="10" stroke-width="2"/>
  <path d="m113.4 61.54c-7.92 0-13.1 6.13-13.23 13.02-1.89-2.28-6.09-3.46-10.17-1.09-1.51-6.89-6.9-12.33-13.29-12.33-7.63 0-13.51 6.6-13.51 13.77 0 7.76 5.88 12.93 13.23 12.93 6.02 0 11.37-4.93 13.17-10.5 1.51-1.61 6.88-2.48 9.71 0.22 1.39 6.28 6.78 10.92 13.8 10.92 7.99 0 13.21-6.89 13.21-13.78 0-7.47-4.94-13.16-12.92-13.16z" fill="#FEF6D5" stroke="#351414" stroke-miterlimit="10" stroke-width="2.2"/>
  <path d="m80.17 67.99c-4.24 0-6.52 3.42-6.52 5.89 0 3.9 2.73 6.27 5.97 6.27 3.56 0 6.2-2.99 6.2-6.27 0-2.94-2.19-5.89-5.65-5.89z" fill="#351414"/>
  <path d="m111.8 67.99c-4.74 0-6.77 3.7-6.77 6.43 0 4.04 2.88 6.31 6.25 6.31 3.93 0 6.21-3.22 6.21-6.31s-2.28-6.43-5.69-6.43z" fill="#351414"/>
  <path d="m78.37 73.25c1.67 0 2.12-2.08 1.04-3.18-1.23-1.24-3.3-0.06-3.3 1.39 0 1.1 1 1.79 2.26 1.79z" fill="#FEFFFE"/>
  <path d="m109.6 73.88c1.78 0 2.26-2.27 1.08-3.37-1.33-1.25-3.58 0-3.58 1.57 0 1.13 1.1 1.8 2.5 1.8z" fill="#FEFFFE"/>
  <path d="m69.99 71.81 2.94-4.57c0.2-0.33-0.15-1.23-1.31-0.93-2.43 0.66-4.5 2.95-4.5 4.91 0 1.46 1.77 2.2 2.87 0.59z" fill="#FEFFFE"/>
  <path d="m118.6 81.87 2.69-4.66c0.57-1-1.21-1.49-2.13 0-1.39 2.45-3.08 4.01-2.58 4.97 0.43 0.83 1.53 0.58 2.02-0.31z" fill="#FEFFFE"/>
  <path d="m94.71 75.73c-4.08 0-4.62 3.89-4.08 5.28 0.93 2.9 2.88 5.84 4.08 5.84 1.07 0 4.7-5.44 4.7-7.23 0-1.91-2-3.89-4.7-3.89z" fill="#F5A13B" stroke="#351414" stroke-miterlimit="10" stroke-width="1.5"/>
  <path d="m54.73 111.8c0.43-8.35 2.98-15.1 8.85-18.18l2.51 1.51-1.33 36.15c-6.68-3.22-10.38-11.14-10.03-19.48z" fill="#C96339" stroke="#351414" stroke-miterlimit="10" stroke-width="2"/>
  <path d="m60.17 110.2-2.65 5.85 1.1 7.09 2.69 3.17-1.14-16.11z" fill="#351414" fill-opacity=".31" stroke="#351414" stroke-miterlimit="10" stroke-width=".75"/>
  <path d="m66.09 95.11c-3.56 9.1-4.8 26.55 5.02 39.02 7.9 10.23 14.92 12 26.42 11.63 10.95-0.36 19.41 0.15 29.23-5.65 5.58-3.33 10.15-11.92 11.08-16.84 1.97-10.39-2.18-24.16-7.01-28.16-9.54 2.95-16.85 5.74-30.24 6.01-14.56 0.32-23.78-1.96-34.5-6.01z" fill="url(#paint0_linear_6827_2229)" stroke="#C96339" stroke-miterlimit="10" stroke-width="2"/>
  <path d="m71.73 99.16c-1.67 0.74-5.92 7.97-6.41 14.86 1.67-5.89 3.63-11.07 6.9-13.17 5.56 1.96 13.34 2.6 20.44 2.4 5.22-0.15 11.45-1.11 14.18-1.98 1.77 0.87 2.84 1.83 3.77 2.84l5.64-2.84 1.32 7.52 1.24 10.23c0.92 8.61-3.68 15.89-21.62 17.59-11.43-0.54-21.39-3.49-30.16-12.2 3.22 7.7 10.09 12.91 14.52 14.68l-4.14-1.49-7.29-7.09c-6.01-7.9-6.31-21.43-3.66-33.12l5.27 1.77z" fill="#C96339" opacity=".3"/>
  <path d="m131.6 93.45c11.9 0 19.48 15.72 20.87 30.67 0.77 8.81-2.37 11.6-10.36 9.48-10.95-1.49-24.81-11.81-25.1-24.77-0.19-9.82 6.35-15.38 14.59-15.38z" fill="url(#paint1_linear_6827_2229)" stroke="#351414" stroke-miterlimit="10" stroke-width="2"/>
  <path d="m131 139.8 5.39-5.69 4.25 0.58 8.81 7.2-0.92 1.96-37.04 10.39-1.51-1.84 0.66-6.21c6.81-0.55 14.45-1.51 20.36-6.39z" fill="url(#paint2_linear_6827_2229)" stroke="#351414" stroke-miterlimit="10" stroke-width="2"/>
  <path d="m135.4 136.3 3.76 3.5h5.44l-3.27 0.96-6.7-0.96 0.77-3.5z" fill="#351414" opacity=".3"/>
  <path d="m57.52 161.2c-5.75-4.44-5.75-14.78 0-18.08l17.1-4.02 3.56 2.94 2 7.8 31.13 4.43 35.61-10.39-0.6 2.34c-1.07 3.02-1.07 5.86-0.25 9.6l3.35 1.31-37.68 14.49-54.22-10.42z" fill="url(#paint3_linear_6827_2229)" stroke="#351414" stroke-miterlimit="10" stroke-width="2"/>
  <path d="m58.22 159.2 53.82 9.13 36.57-11.2 6.27 3.66-45.15 15.26-59.71-13.35 8.2-3.5z" fill="url(#paint4_linear_6827_2229)" stroke="#351414" stroke-miterlimit="10" stroke-width="2"/>
  <path d="m48.63 164.9 61.1 12.1 43.99-9.12-1.24 7.23 2.63 3.29-45.63 15.88-61.35-12.16c-5.05-2.65-5.49-14.7 0.5-17.22z" fill="url(#paint5_linear_6827_2229)" stroke="#351414" stroke-miterlimit="10" stroke-width="2"/>
  <path d="m49.46 168.7 59.35 10.5-0.29 10.39-59.06-11.19c-2.64-1.96-2.81-8.29 0-9.7z" fill="#FEF6D5" stroke="#D4B69E" stroke-miterlimit="10" stroke-width="2"/>
  <path d="m108.5 178.8 40.82-10.13c-0.93 2.95-0.33 6.34 0.74 7.79l-40.89 12.81-0.67-10.47z" fill="#D4B69E" stroke="#D4B69E" stroke-miterlimit="10" stroke-width="2"/>
  <path d="m111.5 156.9 33.28-10.77c-1.17 2.47-1.17 6.78-0.35 9.08l-33.01 11.78c-1-2.18-1-7.77 0.08-10.09z" fill="#D4B69E" stroke="#D4B69E" stroke-miterlimit="10" stroke-width="2"/>
  <path d="m58.31 148.3 52.3 7.82v7.33l-52.3-6.98c-1.77-1.84-1.77-6.44 0-8.17z" fill="#FEF6D5" stroke="#D4B69E" stroke-miterlimit="10" stroke-width="2"/>
  <path d="m90.18 159.2 18.34 2.03" stroke="#D4B69E" stroke-miterlimit="10" stroke-width="2"/>
  <path d="m125.3 157.8 16.86-5.69" stroke="#D4B69E" stroke-miterlimit="10" stroke-width="2"/>
  <path d="m50.61 170.7 30.06 5.34" stroke="#D4B69E" stroke-miterlimit="10" stroke-width="2"/>
  <path d="m85.12 181.2 17.61 2.94" stroke="#D4B69E" stroke-miterlimit="10" stroke-width="2"/>
  <path d="m116.1 181.5 17.55-5.53" stroke="#D4B69E" stroke-miterlimit="10" stroke-width="2"/>
  <path d="m144 118.1 7.19 11.18-4.1 0.55-11.88-6.73 0.88-1.97c3.56 1.47 8 0.08 7.91-3.03z" fill="#351414" fill-opacity=".31" stroke="#351414" stroke-miterlimit="10" stroke-width=".75"/>
  <path d="m143 110.2c1.02 3.07 3.39 4.38 5.35 2.76" stroke="#351414" stroke-miterlimit="10" stroke-width="1.2"/>
  <path d="m134.6 107.7c2.19 1.96 5.17 1.09 4.88-2.41" stroke="#351414" stroke-miterlimit="10" stroke-width="1.2"/>
  <path d="m125.5 111.6c1.87 2.94 5.53 2.39 6.3-0.9" stroke="#351414" stroke-miterlimit="10" stroke-width="1.2"/>
  <path d="m132.6 117.2c1.29 3.89-3.28 6.49-7.35 4.53-3.97-1.84-6.66-7.13-6.66-7.13" stroke="#351414" stroke-miterlimit="10" stroke-width="1.2"/>
  <path d="m70.69 107.1c0.57 4.38 3.37 5.12 4.88 1.66" stroke="#9E4628" stroke-miterlimit="10" stroke-width="1.5"/>
  <path d="m81.16 109.7c0.57 3.66 5.13 5.05 6.65 0" stroke="#9E4628" stroke-miterlimit="10" stroke-width="1.5"/>
  <path d="m92.87 110.7c0.92 4.26 5.35 4.9 6 0" stroke="#9E4628" stroke-miterlimit="10" stroke-width="1.5"/>
  <path d="m104.5 110.2c1.17 4.44 5.22 4.44 5.54-0.44" stroke="#9E4628" stroke-miterlimit="10" stroke-width="1.5"/>
  <path d="m75.31 117.2c0.92 3.89 3.9 4.86 5 0.86" stroke="#9E4628" stroke-miterlimit="10" stroke-width="1.5"/>
  <path d="m86.39 120.2c1.51 3.55 4.73 3.55 5.97 0" stroke="#9E4628" stroke-miterlimit="10" stroke-width="1.5"/>
  <path d="m99.16 119.3c1.17 3.55 4.12 3.26 4.77-0.3" stroke="#9E4628" stroke-miterlimit="10" stroke-width="1.5"/>
  <path d="m83.26 128.7c0.97 2.54 3.8 2.54 3.8 0.31" stroke="#F5A13B" stroke-miterlimit="10" stroke-opacity=".4" stroke-width="2"/>
  <path d="m94.62 130.2c1.39 2.51 3.49 1.05 3.49-1.18" stroke="#F5A13B" stroke-miterlimit="10" stroke-opacity=".4" stroke-width="2"/>
  <path d="m77.29 144.1c0.57-3.04 1.89-3.43 3.38-3.34 2.19 0.13 2.59 1.25 2.85 2.67 0.82-0.89 2.3-1.42 4.06-1.11 1.97 0.37 2.79 1.53 2.79 3.57l-2.47 4.27c-0.99 0.54-2.89 0-3.49-1.58-0.89 1.23-3.25 1.38-4.23 0-2.12 0.63-3.52-0.99-2.89-4.48z" fill="#F5A13B" stroke="#351414" stroke-miterlimit="10" stroke-width="2"/>
  <path d="m83.44 144.7-0.83 3.9" stroke="#351414" stroke-miterlimit="10" stroke-width="2"/>
  <path d="m100.8 146.7c0.57-3.04 1.9-3.43 3.38-3.34 1.42 0.08 2.34 0.49 2.84 1.32 0.87-1.25 2.38-1.59 3.89-1.1 0.97 0.33 1.48 0.76 1.78 1.1 0.92-1.25 2.5-1.59 3.74-0.58 1.87 1.54 0.48 5.64-2.17 7.6-1.67 1.19-3.35-0.38-3.89-1.39-0.97 1.39-3.33 1.66-4.3-0.3-1.77 1.38-6.01 1.11-5.27-3.31z" fill="#F5A13B" stroke="#351414" stroke-miterlimit="10" stroke-width="2"/>
  <path d="m107.7 145.3-0.82 3.9" stroke="#351414" stroke-miterlimit="10" stroke-width="2"/>
  <path d="m113.6 145.3-1.51 3.9" stroke="#351414" stroke-miterlimit="10" stroke-width="2"/>
  <path d="m56.69 68.81 7.12 4.44" stroke="#351414" stroke-miterlimit="10" stroke-width="2"/>
  <path d="m126.4 73.88 19-5.44 1.95 2.5" stroke="#351414" stroke-miterlimit="10" stroke-width="2"/>
  <defs>
    <linearGradient id="paint0_linear_6827_2229" x1="101.4" x2="101.4" y1="94.53" y2="139.6" gradientUnits="userSpaceOnUse">
      <stop stop-color="#FBC583" offset="0"/>
      <stop stop-color="#F8B679" offset="1"/>
    </linearGradient>
    <linearGradient id="paint1_linear_6827_2229" x1="134.8" x2="134.8" y1="93.45" y2="134.4" gradientUnits="userSpaceOnUse">
      <stop stop-color="#F08243" offset="0"/>
      <stop stop-color="#9E4628" offset="1"/>
    </linearGradient>
    <linearGradient id="paint2_linear_6827_2229" x1="130.2" x2="130.2" y1="134.1" y2="149.2" gradientUnits="userSpaceOnUse">
      <stop stop-color="#F08243" offset="0"/>
      <stop stop-color="#9E4628" offset="1"/>
    </linearGradient>
    <linearGradient id="paint3_linear_6827_2229" x1="101.7" x2="101.7" y1="139.1" y2="162.9" gradientUnits="userSpaceOnUse">
      <stop stop-color="#F08243" offset="0"/>
      <stop stop-color="#9E4628" offset="1"/>
    </linearGradient>
    <linearGradient id="paint4_linear_6827_2229" x1="101.7" x2="101.7" y1="158.6" y2="172.9" gradientUnits="userSpaceOnUse">
      <stop stop-color="#75A7B1" offset="0"/>
      <stop stop-color="#648490" offset="1"/>
    </linearGradient>
    <linearGradient id="paint5_linear_6827_2229" x1="101.7" x2="101.7" y1="167.9" y2="191.9" gradientUnits="userSpaceOnUse">
      <stop stop-color="#75A7B1" offset="0"/>
      <stop stop-color="#648490" offset="1"/>
    </linearGradient>
  </defs>
</svg>