<svg xmlns="http://www.w3.org/2000/svg" viewBox="0 0 150.8 149">
<!-- SVG created with Arrow, by QuiverAI (https://quiver.ai) -->
  <style type="text/css">.cls-0 {opacity:0;fill:#FFFFFF;}
.cls-1 {opacity:3.846154e-02;fill:#ECECEC;}
.cls-2 {opacity:7.692308e-02;fill:#DADADA;}
.cls-3 {opacity:0.1154;fill:#CBCBCB;}
.cls-4 {opacity:0.1538;fill:#BBBBBB;}
.cls-5 {opacity:0.1923;fill:#ABABAB;}
.cls-6 {opacity:0.2308;fill:#9A9A9A;}
.cls-7 {opacity:0.2692;fill:#8A8A8A;}
.cls-8 {opacity:0.3077;fill:#797979;}
.cls-9 {opacity:0.3462;fill:#686868;}
.cls-10 {opacity:0.3846;fill:#575757;}
.cls-11 {opacity:0.4231;fill:#464646;}
.cls-12 {opacity:0.4615;fill:#353535;}
.cls-13 {opacity:0.5;fill:#242424;}
.cls-14 {fill:url(#SVGID_1_);}
.cls-15 {fill:none;stroke:#001536;stroke-width:0.3426;stroke-miterlimit:10;}
.cls-16 {opacity:0.2;fill:url(#SVGID_2_);}
.cls-17 {fill:#FFFFFF;}
.cls-18 {fill:none;stroke:#001536;stroke-width:0.3426;stroke-linecap:square;stroke-linejoin:round;stroke-miterlimit:10;}</style>
  <path class="cls-0" d="m116 145h-81c-17.7 0-31.2-10.3-31.2-29.6v-78.4c0-5-0.3-9.6 1.4-13.7 4-11.1 14.7-20.2 29.8-20.3h81c17.7 0 31.3 12.3 31.3 31v77c0 22.7-12.5 34-31.3 34z"/>
  <path class="cls-1" d="m115.8 144.4h-81c-17.4 0-30.7-10.3-30.7-29.4v-78.3c0-4.8-0.2-9.3 1.6-13.4 4-10.9 14.4-19.9 29.4-20l80.7-0.1c17.5-0.1 31 12.2 31 30.8v76.7c0 22.5-12.3 33.7-31 33.7z"/>
  <path class="cls-2" d="m115.7 143.8h-80.7c-17.4 0-30.5-10.2-30.5-29.1v-78c0-4.9-0.1-9.4 1.6-13.4 3.9-10.6 14.2-19.6 29.1-19.7l80.4-0.2c17.4-0.1 30.7 12.1 30.7 30.6v76.4c0 22.4-12.2 33.4-30.6 33.4z"/>
  <path class="cls-3" d="m115.6 143.3h-80.6c-17.3 0-30.1-10.1-30.1-28.8l-1-78.1c0-4.8 1-9.2 2.7-13.1 3.8-10.3 13.9-19.3 28.8-19.4l80.1-0.3c17.3-0.1 30.3 12 30.3 30.4v76.1c0 22.2-12 33.2-30.2 33.2z"/>
  <path class="cls-4" d="m115.5 142.7h-80.6c-17.1 0-29.6-10-29.6-28.4l-1-78.1c-0.1-4.7 1.1-9.1 2.7-12.9 3.7-9.9 13.7-19 28.5-19.2l79.8-0.3c17.3-0.1 30 11.9 30 30.2v75.9c0 21.9-11.8 32.8-29.8 32.8z"/>
  <path class="cls-5" d="m115.3 142.2h-80.4c-16.9 0-29.2-9.9-29.2-28.2l-0.9-78.1c-0.1-4.6 1.1-8.9 2.6-12.6 3.7-9.5 13.5-18.7 28.2-18.9l79.6-0.4c17.2-0.2 29.6 11.7 29.6 30v75.6c0 21.8-11.7 32.6-29.5 32.6z"/>
  <path class="cls-6" d="m115.2 141.6h-80.3c-16.8 0-28.8-9.7-28.8-27.8l-0.8-78.1c-0.2-4.5 1.1-8.8 2.6-12.3 3.6-9.3 13.3-18.5 27.9-18.8l79.3-0.4c17.1-0.2 29.2 11.6 29.2 29.8v75.3c0 21.6-11.5 32.3-29.1 32.3z"/>
  <path class="cls-7" d="m115.1 141.1h-80.2c-16.7 0-28.4-9.7-28.4-27.6l-0.8-78c-0.1-4.4 1.2-8.6 2.6-12.1 3.5-8.9 13.1-18.2 27.6-18.5l79-0.5c17.1-0.2 28.9 11.5 28.9 29.6v75c0 21.5-11.3 32.1-28.7 32.1z"/>
  <path class="cls-8" d="m115 140.6h-80.1c-16.5 0-28-9.6-28-27.3l-0.7-78.1c-0.2-4.3 1.2-8.4 2.6-11.7 3.4-8.6 12.8-18 27.2-18.4l78.8-0.5c17-0.2 28.6 11.4 28.6 29.4v74.8c0 21.2-11.3 31.8-28.4 31.8z"/>
  <path class="cls-9" d="m114.9 140h-80.1c-16.3 0-27.5-9.4-27.5-27l-0.6-78c-0.2-4.2 1.2-8.2 2.5-11.5 3.3-8.3 12.6-17.8 27-18.1l78.4-0.6c17-0.2 28.3 11.2 28.3 29.2v74.5c0 21-11.1 31.5-28 31.5z"/>
  <path class="cls-10" d="m114.8 139.5h-80c-16.2 0-27.1-9.4-27.1-26.7l-0.6-78c-0.2-4.1 1.3-8.1 2.6-11.2 3.2-8 12.3-17.6 26.6-17.9l78.2-0.7c16.9-0.2 27.9 11.1 27.9 29v74.2c0 20.9-10.9 31.3-27.6 31.3z"/>
  <path class="cls-11" d="m114.6 138.9h-79.8c-16.1 0-26.7-9.2-26.7-26.3l-0.5-78.1c-0.2-4 1.2-7.8 2.6-10.8 3.1-7.8 12.1-17.4 26.2-17.8l78-0.7c16.8-0.2 27.5 11 27.5 28.8v74c0 20.6-10.8 30.9-27.3 30.9z"/>
  <path class="cls-12" d="m114.5 138.4h-79.7c-15.9 0-26.3-9.1-26.3-26.1l-0.5-78c-0.2-3.9 1.3-7.6 2.6-10.6 3-7.4 11.9-17.1 26-17.5l77.6-0.8c16.8-0.2 27.2 10.9 27.2 28.6v73.7c0 20.4-10.6 30.7-26.9 30.7z"/>
  <path class="cls-13" d="m114.4 137.8h-79.6c-15.8 0-25.9-9-25.9-25.7l-0.4-78c-0.2-3.9 1.3-7.5 2.6-10.4 2.9-7 11.6-16.8 25.6-17.3l77.4-0.8c16.7-0.2 26.8 10.8 26.8 28.4v73.4c0 20.3-10.4 30.4-26.5 30.4z"/>
  <linearGradient id="SVGID_1_" x1="75.29" x2="75.29" y1="141.1" y2="2.501" gradientUnits="userSpaceOnUse">
    <stop stop-color="#021530" offset="0"/>
    <stop stop-color="#022251" offset=".5025"/>
    <stop stop-color="#4075C3" offset="1"/>
  </linearGradient>
  <path class="cls-14" d="m114.5 141.1h-78.4c-18 0-32.4-9.7-32.4-31.5v-75.6c0-15.8 10.9-31.4 32.4-31.5h78.4c18.5-0.1 32.4 11.4 32.5 30.6v76.4c0 22.1-13.6 31.6-32.5 31.6z"/>
  <path class="cls-15" d="m114.5 141.1h-78.4c-18 0-32.4-9.7-32.4-31.5v-75.6c0-15.8 10.9-31.4 32.4-31.5h78.4c18.5-0.1 32.4 11.4 32.5 30.6v76.4c0 22.1-13.6 31.6-32.5 31.6z"/>
  <linearGradient id="SVGID_2_" x1="11.46" x2="58.03" y1="-3.547" y2="67.19" gradientUnits="userSpaceOnUse">
    <stop stop-color="#fff" offset="0"/>
    <stop stop-color="#fff" stop-opacity="0" offset="1"/>
  </linearGradient>
  <path class="cls-16" d="m136.1 9.4c-4.7-3.9-11.7-6.9-21.6-6.9h-78.4c-21.5 0.1-32.4 14.6-32.4 30.4v72.1c9.8-8.8 24.9-19.7 32.4-26 20.2-17.1 51.2-45.8 100-69.6z"/>
  <path class="cls-17" d="m110.7 34h-29.1c-3.8 0-9.7 1.9-11.9 6.2l-16.1 34.3c-0.9 1.7-2.3 2.1-3.6 0l-20.4-36.8c-1.6-2.7-4.4-4.1-7.7-3.7-4.7 0.9-7.4 5.7-5.3 9.5l28.4 49.8c1.7 2.8 2.9 5.1 7.6 5.2 1.9 0 4.4-1.1 5.5-2.9l1.4-2.4 20.4-42.8c1-2.5 3.2-3.9 5.8-3.9h22.7c7.1 0 14.2 3.4 14.2 17 0 7.4-3.4 15.5-13.8 15.5h-6.7c-4.7 0.1-5.8 1.6-7.2 4.5l-4.1 8.5c-0.1 0.4 0.3 1.3 1.4 1.3h17.5c12.2 0 27-7.8 27-28.6 0.1-20-12.7-30.7-26-30.7z"/>
  <path class="cls-18" d="m110.7 34h-29.1c-3.9 0-9.7 1.9-11.9 6.1l-16.1 34.3c-0.8 1.8-2.4 2.1-3.6 0l-20.4-36.7c-1.6-2.8-4.4-4.1-7.7-3.7-4.7 0.9-7.3 5.6-5.3 9.5l28.4 49.8c1.7 2.8 2.9 5.1 7.6 5.2 1.9 0 4.4-1.1 5.5-2.8l1.4-2.4 20.4-42.4c1.1-2.3 2.2-4.3 5.8-4.4h22.7c7.1 0 14.2 3.3 14.2 17 0 7.4-3.4 15.6-13.8 15.6h-6.7c-4.7 0.1-5.8 1.5-7.2 4.4l-3.8 8c-0.7 1-0.5 1.8 1.1 1.8h17.5c12.2 0 27-7.8 27-28.2 0.3-20.6-12.7-31.1-26-31.1z"/>
  <path class="cls-17" d="m95.4 72.1h13.4c4.1 0 6.4-2.6 6.4-6.4 0-3.2-2-6.3-7.1-6.3h-14.9c-5.6 0-9.8 1.6-12.3 6.9l-20.3 42.7c-1.5 2.9-0.7 5.9 1.9 8 3.6 1.9 7.8 1.7 10.2-2.6l19.2-39.8c0.6-1.5 1.5-2.5 3.5-2.5z"/>
  <path class="cls-18" d="m95.4 72.1h13.4c4.1 0 6.4-2.7 6.4-6.5 0-3.1-2-6.2-6-6.2h-16c-5.6 0-9.9 1.5-12.3 6.8l-20.3 42.8c-1.5 2.9-0.7 5.9 1.9 7.9 3.6 2 7.8 1.8 10.2-2.4l19.2-39.9c0.6-1.6 1.5-2.5 3.5-2.5z"/>
</svg>