<svg xmlns="http://www.w3.org/2000/svg" viewBox="0 0 128 128" role="img" aria-label="VeilPlays joystick favicon">
  <defs>
    <radialGradient id="bg" cx="50%" cy="42%" r="72%">
      <stop offset="0%" stop-color="#f3fbff"/>
      <stop offset="62%" stop-color="#dff3ff"/>
      <stop offset="100%" stop-color="#c9e8fb"/>
    </radialGradient>
    <linearGradient id="shaft" x1="48" x2="80" y1="49" y2="98" gradientUnits="userSpaceOnUse">
      <stop offset="0%" stop-color="#607284"/>
      <stop offset="100%" stop-color="#344455"/>
    </linearGradient>
    <linearGradient id="base" x1="25" x2="103" y1="96" y2="121" gradientUnits="userSpaceOnUse">
      <stop offset="0%" stop-color="#647482"/>
      <stop offset="100%" stop-color="#3b4a59"/>
    </linearGradient>
    <radialGradient id="button" cx="43%" cy="34%" r="70%">
      <stop offset="0%" stop-color="#ff3b43"/>
      <stop offset="64%" stop-color="#f91e2c"/>
      <stop offset="100%" stop-color="#a60f16"/>
    </radialGradient>
  </defs>
  <rect width="128" height="128" rx="24" fill="url(#bg)"/>
  <path d="M54 48h20v52H54z" fill="url(#shaft)" stroke="#142338" stroke-width="4"/>
  <path d="M34 97h60c2.8 0 5.4 1.2 7.2 3.4l10.8 13.1c4.1 5 1 12.5-5.4 12.5H21.4c-6.4 0-9.5-7.5-5.4-12.5l10.8-13.1A9.3 9.3 0 0 1 34 97Z" fill="#142338"/>
  <path d="M36.5 101.5h55c2 0 3.8.8 5.1 2.3l9 10.8c2.2 2.6.3 6.7-3.1 6.7h-77c-3.4 0-5.3-4.1-3.1-6.7l9-10.8a6.7 6.7 0 0 1 5.1-2.3Z" fill="url(#base)" opacity=".9"/>
  <circle cx="64" cy="34" r="30" fill="#9a0f15"/>
  <circle cx="64" cy="34" r="25.5" fill="url(#button)"/>
  <circle cx="62" cy="28" r="9.5" fill="#ffb0b5" opacity=".58"/>
</svg>
